<svg xmlns="http://www.w3.org/2000/svg" viewBox="0 0 500.87 156.738">
  <path d="M409.547 36.918c4.75-8.42 12.522-17.488 15.329-20.294 12.953 5.397 25.043 16.407 23.316 19.214-4.966 8.204-12.522 17.487-15.328 20.294-12.954-5.397-25.044-16.192-23.317-19.214zM500.87 74.05c-1.512 7.34-10.58 15.544-14.465 16.84-3.238-6.909-6.909-11.01-10.363-11.01-4.318 0-4.534 3.022-4.534 6.908 0 6.908 4.966 22.02 4.966 37.78 0 17.272-12.09 30.01-30.657 30.01-17.001 0-26.396-11.145-30.587-28.95-11.106 19.901-27.346 28.95-39.794 28.95-19.459 0-24.039-14.383-23.577-28.972-7.82 13.818-22.87 28.972-37.304 28.972-14.735 0-19.94-12.825-18.746-27.761-8.828 16.444-24.798 27.76-40.193 27.76-16.706 0-24.975-13.27-22.299-29.72-11.238 13.814-32.16 29.72-53.91 29.72-24.801 0-35.597-13.373-36.876-30.13-11.97 19.184-28.104 30.778-47.323 30.778-27.742 0-37.665-24.67-39.109-44.849-10.281 13.769-21.84 28.053-36.021 43.986-1.511 1.511-2.807 2.375-4.318 2.375-4.965 0-15.112-22.021-15.76-30.225 5.759-8.936 52.794-59.697 72.398-81.558C59.155 48.95 45.501 56.92 28.282 69.3c-3.023 2.16-11.442-17.487-11.227-32.6 19.863-14.68 50.087-23.963 74.483-23.963 34.111 0 53.757 18.998 53.757 45.337 0 22.021-18.35 46.2-45.121 47.064-13.92.362-22.841-7.452-27.404-17.1.545 14.922 8.304 33.292 29.131 33.292 24.18 0 34.975-15.544 53.11-38.213 13.817-17.055 29.793-32.167 53.109-32.167 14.249 0 23.964 8.851 23.964 22.236 0 16.192-18.999 38.645-45.553 38.645-4.536 0-8.67-.597-12.16-1.779a15.7 15.7 0 00-.146 1.995c0 7.556 2.807 12.09 15.112 12.09 18.135 0 35.19-10.795 55.916-36.054 20.294-24.828 35.623-35.622 51.815-35.622 10.93 0 19.225 5.924 22.881 15.9C341.65 37.02 360.06 14.813 375.652 0c15.329 6.477 26.34 19.214 23.317 21.805-11.443 10.363-49.656 52.03-64.768 76.858-3.886 6.476-7.556 13.6-7.556 17.055 0 3.239 1.943 4.318 4.102 4.318 14.249 0 48.144-46.2 67.358-66.495 12.09 4.966 24.396 15.544 21.373 19.215-15.976 18.998-28.066 34.542-28.066 43.394 0 2.375.864 3.886 4.102 3.886 6.045 0 11.658-5.397 20.942-16.84 1.943-2.374 4.318-2.374 5.829 1.296 4.102 9.93 10.147 15.328 14.896 15.328 5.614 0 8.42-4.965 8.42-12.522 0-9.067-1.943-20.725-1.943-25.907 0-17.487 12.954-27.634 29.146-27.634 12.09 0 22.884 5.83 28.066 20.294zm-399.1-31.49c-7.271 11.364-14.04 21.98-20.876 32.332 3.715 2.087 8.414 3.693 14.53 3.693 11.443 0 23.964-6.261 23.964-18.999 0-7.73-4.797-14.856-17.618-17.026zm75.886 57.975c2.269.877 4.933 1.366 7.795 1.366 15.329 0 25.691-11.658 25.691-19.43 0-3.454-2.158-5.83-5.613-5.83-8.661 0-21.726 12.156-27.873 23.894zm128.479-16.121c0-4.318-2.375-6.909-6.26-6.909-12.739 0-31.953 24.18-31.953 36.27 0 3.886 2.159 6.477 6.693 6.477 14.033 0 31.52-25.475 31.52-35.838z" fill="#ff4438"/>
</svg>
